<svg id="Capa_1" enable-background="new 0 0 512 512" height="512" viewBox="0 0 512 512" width="512" xmlns="http://www.w3.org/2000/svg"><g><g><g><path d="m410.163 452.299h-392.104c-5.839 0-10.572-4.733-10.572-10.572v-253.25c0-5.839 4.733-10.572 10.572-10.572h392.104c5.839 0 10.572 4.733 10.572 10.572v253.25c0 5.838-4.733 10.572-10.572 10.572z" fill="#fee45a"/></g><g><path d="m420.739 188.475v253.248c0 5.84-4.732 10.572-10.572 10.572h-19.966c5.84 0 10.572-4.732 10.572-10.572v-253.248c0-5.84-4.732-10.572-10.572-10.572h19.966c5.84 0 10.572 4.732 10.572 10.572z" fill="#fed402"/></g><g><path d="m22.102 452.299 187.056-147.879c2.903-2.295 7.003-2.295 9.906 0l187.056 147.879z" fill="#fed402"/></g><g><path d="m406.123 452.295h-33.443l-175.29-138.574 11.77-9.304c2.905-2.296 6.998-2.296 9.903 0z" fill="#fac600"/></g><g><path d="m22.102 177.904 187.056 197.791c2.903 2.405 7.003 2.405 9.906 0l187.056-197.791z" fill="#fef0ae"/></g><g><path d="m406.115 177.903-187.05 197.788c-2.905 2.406-7.008 2.406-9.903 0l-8.545-9.027 178.515-188.761z" fill="#fee97d"/></g></g><g><g><circle cx="415.432" cy="148.782" fill="#acacac" r="89.081"/></g><g><path d="m504.515 148.783c0 49.196-39.882 89.078-89.088 89.078-23.011 0-43.985-8.725-59.788-23.041 12.758 7.048 27.413 11.061 43.017 11.061 49.196 0 89.078-39.882 89.078-89.078 0-26.185-11.301-49.735-29.28-66.027 27.463 15.164 46.061 44.415 46.061 78.007z" fill="#9c9c9c"/></g><g><g><path d="m457.462 109.748-86.925 31.117c-5.692 2.038-6.794 9.609-1.919 13.184l25.695 18.848z" fill="#f9f3f1"/></g><g><path d="m457.462 109.748-31.117 86.925c-2.038 5.692-9.609 6.794-13.184 1.919l-18.848-25.695z" fill="#e1d3ce"/></g><g><path d="m457.466 109.75-31.117 86.922c-2.046 5.69-9.614 6.798-13.188 1.917l-2.206-3.015 21.923-61.235z" fill="#cdbfba"/></g></g><g><path d="m415.432 52.214c-53.248 0-96.568 43.32-96.568 96.568 0 7.436.846 14.677 2.445 21.634h-303.25c-9.958.001-18.059 8.102-18.059 18.06v175.528c0 4.135 3.352 7.487 7.487 7.487s7.487-3.352 7.487-7.487v-175.528c0-1.701 1.384-3.085 3.085-3.085h.819l140.649 148.721-140.027 110.699h-1.441c-1.701 0-3.085-1.384-3.085-3.085v-43.17c0-4.135-3.352-7.487-7.487-7.487s-7.487 3.352-7.487 7.487v43.17c0 9.958 8.101 18.059 18.059 18.059h392.104c9.958 0 18.059-8.101 18.059-18.059v-197.224c47.224-6.277 83.778-46.808 83.778-95.72 0-53.248-43.32-96.568-96.568-96.568zm-375.944 133.177h286.59c5.991 14.57 15.456 27.352 27.344 37.338l-139.286 147.28c-.017.003-.033.002-.049 0zm4.158 259.42 126.21-99.777 33.862 35.805c.209.22.43.428.663.622 2.819 2.335 6.273 3.502 9.729 3.502 3.455 0 6.911-1.168 9.729-3.502.233-.194.455-.401.664-.622l33.862-35.805 126.21 99.777zm369.602-3.085c0 1.701-1.384 3.085-3.085 3.085h-1.441l-140.027-110.699 97.016-102.583c13.949 8.414 30.183 13.407 47.537 13.794zm2.184-211.35c-44.991 0-81.594-36.602-81.594-81.594 0-44.991 36.603-81.593 81.594-81.593s81.594 36.603 81.594 81.593c0 44.991-36.603 81.594-81.594 81.594z"/><path d="m459.359 102.661c-1.429-.467-3.006-.469-4.422.038-.372.133-86.923 31.117-86.923 31.117-5.247 1.878-9.006 6.471-9.808 11.986-.803 5.515 1.49 10.989 5.984 14.285l24.766 18.167 18.167 24.766c2.86 3.9 7.361 6.142 12.105 6.142 6.278 0 12.039-4.033 14.166-9.966 0-.001 3.723-10.387 3.723-10.387 1.41-3.887-.599-8.181-4.486-9.591-3.886-1.409-8.181.6-9.591 4.486l-3.733 10.466c-.024.014-.084.023-.108-.007l-15.048-20.514 35.022-35.022-4.539 12.681c-1.394 3.893.632 8.179 4.525 9.572 3.895 1.395 8.18-.633 9.573-4.525 0 0 15.898-44.433 15.945-44.611.377-1.429.256-2.954-.292-4.333-.887-2.224-2.767-4.012-5.026-4.75zm-65.801 60.401-20.535-15.047c-.007-.027.002-.088.037-.102l55.522-19.876z"/></g></g></g></svg>