<svg id="Capa_1" enable-background="new 0 0 512 512" height="512" viewBox="0 0 512 512" width="512" xmlns="http://www.w3.org/2000/svg"><g><g><g><g><path d="m366.178 504.5h-220.356c-16.787 0-30.395-13.608-30.395-30.395v-436.21c0-16.787 13.608-30.395 30.395-30.395h220.356c16.787 0 30.395 13.608 30.395 30.395v436.211c0 16.786-13.608 30.394-30.395 30.394z" fill="#acacac"/></g></g><g><g><path d="m396.572 37.896v436.209c0 16.789-13.607 30.396-30.396 30.396h-19.893c16.79 0 30.396-13.607 30.396-30.396v-436.209c0-16.789-13.607-30.396-30.396-30.396h19.893c16.79-.001 30.396 13.606 30.396 30.396z" fill="#9c9c9c"/></g></g><g><g><path d="m316.534 43.622-8.092 13.747c-2.123 3.607-5.996 5.821-10.182 5.821h-42.26-42.26c-4.185 0-8.059-2.214-10.182-5.821l-8.092-13.747c-2.123-3.607-5.996-5.821-10.182-5.821h-23.134c-6.525 0-11.815 5.29-11.815 11.815v412.768c0 6.525 5.29 11.815 11.815 11.815h93.85 93.85c6.525 0 11.815-5.29 11.815-11.815v-412.768c0-6.525-5.29-11.815-11.815-11.815h-23.135c-4.185 0-8.058 2.215-10.181 5.821z" fill="#d8ecfe"/></g></g><g><g><path d="m361.66 49.612v412.775c0 6.525-5.282 11.816-11.806 11.816h-19.893c6.525 0 11.806-5.291 11.806-11.816v-412.775c0-6.525-5.282-11.816-11.806-11.816h19.893c6.525 0 11.806 5.292 11.806 11.816z" fill="#c4e2ff"/></g></g></g><g><path d="m234.602 198.282c-9.208-12.066-21.101-21.067-35.708-10.084-8.158 6.134-13.735 15.351-16.362 25.214-5.584 20.969-.504 42.564 10.586 60.818 13.664 22.49 35.758 42.231 59.749 53.035 26.421 11.898 51.298 7.16 71.271-13.835 8.44-8.872 11.705-23.399.078-31.362-9.576-6.559-24.161-16.729-35.454-8.051-7.774 5.974-9.638 15.141-20.387 16.717-18.38 2.694-40.221-24.512-43.864-40.342-1.13-4.91-.109-9.337 2.56-13.527 2.798-4.392 6.462-5.717 9.936-8.882 8.262-7.528 5.065-19.912-2.405-29.701z" fill="#b0e7c9"/></g><g><path d="m324.137 313.428c-19.969 20.999-44.848 25.739-71.267 13.84-23.989-10.81-46.088-30.549-59.748-53.038-9.74-16.009-14.839-34.599-12.17-53.068 1.63 11.62 5.96 22.879 12.17 33.099 13.66 22.489 35.759 42.238 59.748 53.038 26.419 11.899 51.298 7.16 71.267-13.84 1.91-2.01 3.56-4.3 4.82-6.75 5.61 8.159 2.16 19.379-4.82 26.719z" fill="#91deb6"/></g><g><path d="m366.178 0h-220.356c-20.895 0-37.894 16.999-37.894 37.895v436.211c0 20.895 16.999 37.895 37.894 37.895h143.426c4.142 0 7.5-3.358 7.5-7.5s-3.357-7.5-7.5-7.5h-143.426c-12.625 0-22.895-10.271-22.895-22.895v-436.211c0-12.625 10.27-22.895 22.895-22.895h220.357c12.625 0 22.895 10.271 22.895 22.895v436.211c0 12.625-10.27 22.895-22.895 22.895h-42.042c-4.142 0-7.5 3.358-7.5 7.5s3.357 7.5 7.5 7.5h42.042c20.895 0 37.894-16.999 37.894-37.895v-436.211c0-20.896-17-37.895-37.895-37.895z"/><path d="m150.335 114.833c-4.142 0-7.5 3.358-7.5 7.5v340.051c0 10.65 8.664 19.314 19.314 19.314h187.702c10.65 0 19.314-8.664 19.314-19.314v-412.768c0-10.65-8.664-19.314-19.314-19.314h-23.135c-6.812 0-13.19 3.646-16.645 9.516l-8.093 13.748c-.771 1.311-2.196 2.125-3.718 2.125h-84.52c-1.521 0-2.946-.814-3.719-2.126l-8.091-13.747c-3.456-5.87-9.834-9.517-16.646-9.517h-23.135c-10.65 0-19.314 8.664-19.314 19.314v37.841c0 4.142 3.357 7.5 7.5 7.5s7.5-3.358 7.5-7.5v-37.84c0-2.379 1.936-4.315 4.314-4.315h23.135c1.522 0 2.947.814 3.72 2.126l8.091 13.747c3.456 5.87 9.834 9.517 16.645 9.517h84.52c6.811 0 13.189-3.646 16.644-9.516l8.093-13.748c.771-1.311 2.196-2.125 3.719-2.125h23.135c2.379 0 4.314 1.935 4.314 4.315v412.768c0 2.379-1.936 4.315-4.314 4.315h-187.702c-2.379 0-4.314-1.935-4.314-4.315v-340.052c0-4.142-3.357-7.5-7.5-7.5z"/><path d="m279.951 45.301c4.142 0 7.5-3.358 7.5-7.5s-3.357-7.5-7.5-7.5h-47.902c-4.142 0-7.5 3.358-7.5 7.5s3.357 7.5 7.5 7.5z"/><path d="m242.06 233.526c10.346-9.427 9.759-25.047-1.496-39.794-18.535-24.289-35.342-19.675-46.178-11.529-9.115 6.854-15.898 17.252-19.102 29.278-5.712 21.448-1.655 45.115 11.423 66.643 14.44 23.767 38.021 44.694 63.08 55.979 10.465 4.712 20.8 7.046 30.769 7.046 17.997 0 34.801-7.607 49.016-22.55 6.88-7.232 10.447-16.677 9.543-25.267-.754-7.157-4.439-13.191-10.66-17.453l-.311-.212c-9.948-6.815-28.464-19.499-43.953-7.597-3.548 2.727-5.981 5.804-8.128 8.519-3.371 4.265-5.021 6.173-8.776 6.723-12.927 1.9-32.368-21.137-35.467-34.603-.624-2.712-.138-5.121 1.575-7.812 2.136-3.355 5.827-4.785 8.665-7.371zm-10.102-11.089c-3.896 3.553-8.285 5.803-11.212 10.397-3.886 6.099-5.079 12.572-3.544 19.239 4.2 18.261 28.591 49.553 52.26 46.081 9.81-1.438 14.555-7.439 18.367-12.262 1.763-2.229 3.427-4.334 5.502-5.929 6.328-4.864 16.068 1.044 26.335 8.078 0 0 .31.212.312.213 7.337 5.026 3.79 14.684-1.273 20.005-17.613 18.515-39.313 22.724-62.758 12.166-22.401-10.089-43.493-28.814-56.419-50.09-10.937-18.002-14.398-37.533-9.749-54.994 2.343-8.794 7.181-16.306 13.622-21.149 3.163-2.378 6.065-3.367 8.751-3.367 6.597 0 11.884 5.973 16.488 12.007 3.136 4.109 5.135 8.419 5.63 12.138.57 4.284-1.047 6.313-2.312 7.467z"/><path d="m293.559 245.457c.906.359 1.84.529 2.76.529 2.985 0 5.809-1.795 6.975-4.74 3.906-9.86 1.584-21.076-5.914-28.574-7.566-7.566-18.861-9.855-28.773-5.834-3.839 1.557-5.688 5.93-4.132 9.769 1.557 3.839 5.932 5.689 9.769 4.132 4.319-1.751 9.235-.754 12.53 2.541 3.265 3.265 4.275 8.149 2.575 12.442-1.527 3.851.358 8.21 4.21 9.735z"/><path d="m330.393 249.574c.313.039.625.058.935.058 3.729 0 6.961-2.78 7.433-6.576 2.465-19.825-4.215-39.289-18.326-53.4-14.112-14.112-33.578-20.792-53.405-18.327-4.11.511-7.028 4.258-6.517 8.369.511 4.11 4.249 7.024 8.368 6.517 15.206-1.895 30.129 3.229 40.946 14.047 10.818 10.818 15.938 25.741 14.049 40.943-.513 4.111 2.405 7.858 6.517 8.369z"/></g></g></svg>