<svg enable-background="new 0 0 36 36" height="512" viewBox="0 0 36 36" width="512" xmlns="http://www.w3.org/2000/svg"><path d="m34.904 20.355c-3.782-5.791-3.38-11.727-5.203-14.518s-7.256-7.603-20.093.782-9.572 17.5-7.566 20.569c9.388 14.372 39.561 3.423 32.862-6.833z" fill="#efefef"/><path d="m23.75 15.75-4-4 4-4z" fill="#2fdf84"/><path d="m5 10.5c-.827 0-1.5-.673-1.5-1.5s.673-1.5 1.5-1.5 1.5.673 1.5 1.5-.673 1.5-1.5 1.5zm0-2c-.275 0-.5.224-.5.5s.225.5.5.5.5-.224.5-.5-.225-.5-.5-.5z" fill="#a4afc1"/><path d="m23.75 23.5h-4v-1.5h4c2.619 0 4.75-2.131 4.75-4.75s-2.131-4.75-4.75-4.75v-1.5c3.446 0 6.25 2.804 6.25 6.25s-2.804 6.25-6.25 6.25z"/><path d="m6.75 22h8.5v1.5h-8.5z"/><path d="m6.75 11h8.5v1.5h-8.5z"/><path d="m6.75 16.5h8.5v1.5h-8.5z"/><path d="m23.75 16.5c-.195 0-.387-.076-.53-.22l-4-4c-.293-.293-.293-.768 0-1.061l4-4c.215-.214.537-.28.817-.163.28.116.463.39.463.693v8c0 .303-.183.577-.463.693-.093.039-.19.058-.287.058zm-2.939-4.75 2.189 2.189v-4.378z"/></svg>