<svg enable-background="new 0 0 32 32" height="512" viewBox="0 0 32 32" width="512" xmlns="http://www.w3.org/2000/svg"><path d="m26 32h-20c-3.314 0-6-2.686-6-6v-20c0-3.314 2.686-6 6-6h20c3.314 0 6 2.686 6 6v20c0 3.314-2.686 6-6 6z" fill="#f5e6fe"/><path d="m19.333 21.167h-2.667c-.368 0-.666-.299-.666-.667s.298-.667.667-.667h2.667c1.838 0 3.333-1.495 3.333-3.333s-1.495-3.333-3.333-3.333h-2.167c-.368 0-.667-.299-.667-.667s.298-.667.667-.667h2.167c2.573 0 4.667 2.093 4.667 4.667s-2.095 4.667-4.668 4.667z" fill="#be63f9"/><path d="m14 21.167h-5.333c-.369 0-.667-.299-.667-.667s.298-.667.667-.667h5.333c.368 0 .667.299.667.667s-.299.667-.667.667z" fill="#d9a4fc"/><path d="m14 13.167h-5.333c-.369 0-.667-.299-.667-.667s.298-.667.667-.667h5.333c.368 0 .667.299.667.667s-.299.667-.667.667z" fill="#d9a4fc"/><g fill="#be63f9"><path d="m14 17.167h-5.333c-.369 0-.667-.299-.667-.667s.298-.667.667-.667h5.333c.368 0 .667.299.667.667s-.299.667-.667.667z"/><path d="m19.033 15.125c-.182.078-.395.044-.54-.092l-2.333-2.167c-.102-.094-.16-.227-.16-.366s.058-.272.16-.367l2.333-2.167c.094-.088.217-.133.34-.133.068 0 .135.014.2.042.182.079.3.259.3.458v4.333c0 .2-.117.38-.3.459z"/></g></svg>